        <svg xmlns="http://www.w3.org/2000/svg" xmlns:xlink="http://www.w3.org/1999/xlink" width="233.484"
                height="147.5" viewBox="0 0 233.484 147.5">
                <defs>
                    <linearGradient id="linear-gradient" x1="0.455" y1="1" x2="0.447" y2="-1.079"
                        gradientUnits="objectBoundingBox">
                        <stop offset="0" stop-color="#393c97"></stop>
                        <stop offset="0.246" stop-color="#395ca1"></stop>
                        <stop offset="0.625" stop-color="#37b6be"></stop>
                        <stop offset="1" stop-color="#37bec1"></stop>
                    </linearGradient>
                    <linearGradient id="linear-gradient-2" x1="0.5" x2="0.5" y2="1" gradientUnits="objectBoundingBox">
                        <stop offset="0" stop-color="#82c341"></stop>
                        <stop offset="1" stop-color="#37bec1"></stop>
                    </linearGradient>
                    <clipPath id="clip-path">
                        <rect id="Rectangle_673" data-name="Rectangle 673" width="97.425" height="97.423" fill="none">
                        </rect>
                    </clipPath>
                    <clipPath id="clip-path-2">
                        <rect id="Rectangle_674" data-name="Rectangle 674" width="233.484" height="140.311"
                            fill="#37b0bc">
                        </rect>
                    </clipPath>
                </defs>
                <g id="Group_603" data-name="Group 603" transform="translate(61 49)">
                    <path id="Path_2840" data-name="Path 2840" d="M2.529,13.96V27.541H88.543V13.96Z"
                        transform="translate(1.998 11.03)" fill="url(#linear-gradient)"></path>
                    <rect id="Rectangle_671" data-name="Rectangle 671" width="72.435" height="58.852"
                        transform="translate(11.408 38.571)" fill="url(#linear-gradient-2)"></rect>
                    <g id="Group_602" data-name="Group 602" transform="translate(0 0)">
                        <g id="Group_601" data-name="Group 601" clip-path="url(#clip-path)">
                            <path id="Path_2841" data-name="Path 2841"
                                d="M50.278,3.742a3.437,3.437,0,0,1,3.441,3.441,3.441,3.441,0,1,1-6.881,0,3.329,3.329,0,0,1,3.441-3.441"
                                transform="translate(37.006 2.957)" fill="#dcdcdc"></path>
                            <path id="Path_2842" data-name="Path 2842"
                                d="M5.842,2.528a4.483,4.483,0,0,1,4.527,4.527,4.484,4.484,0,0,1-4.527,4.529A4.485,4.485,0,0,1,1.315,7.055,4.484,4.484,0,0,1,5.842,2.528"
                                transform="translate(1.039 1.998)" fill="#dcdcdc"></path>
                            <path id="Path_2843" data-name="Path 2843"
                                d="M41.273,16.259c-1.992,2.354-10.685,3.985-14.668,5.616.906-3.985,1.629-12.858,3.621-15.212a7.311,7.311,0,0,1,10.5-.906c3.079,2.537,3.262,7.245.544,10.5"
                                transform="translate(21.021 3.116)" fill="#faa71a"></path>
                            <path id="Path_2844" data-name="Path 2844"
                                d="M28.382,8.066c1.812,1.629,3.26,8.691,4.527,11.589-3.26-.725-10.322-1.267-12.132-2.9a6.033,6.033,0,0,1-.725-8.51,6.119,6.119,0,0,1,8.329-.181"
                                transform="translate(14.716 5.154)" fill="#ffd400"></path>
                            <path id="Path_2845" data-name="Path 2845"
                                d="M26.787,14.02c12.676,1.448,19.738,8.149,23.54,13.582a25.638,25.638,0,0,1,3.441,6.7l-9.053-4.525-4.529,6.881c.544-2.9-.362-5.975-2.173-9.054C34.029,20.54,26.6,14.02,26.6,14.02c0-.183.183-.183.183,0"
                                transform="translate(21.02 10.97)" fill="#ffd400"></path>
                            <path id="Path_2846" data-name="Path 2846"
                                d="M38.592,13.858s-7.606,6.52-11.408,13.582c-1.629,3.079-2.716,6.156-2.173,9.054l-4.527-6.881L11.431,34.14a22.941,22.941,0,0,1,3.439-6.7c3.621-5.433,10.866-12.132,23.542-13.582Z"
                                transform="translate(9.032 10.95)" fill="#ffd400"></path>
                            <rect id="Rectangle_672" data-name="Rectangle 672" width="13.582" height="49.436"
                                transform="translate(40.745 38.571)" fill="#19ab5c"></rect>
                            <path id="Path_2847" data-name="Path 2847"
                                d="M55.838,42.485,43.343,51.72l4.708,14.487L35.557,57.336,23.062,66.208,27.77,51.72,15.275,42.485H30.668l4.889-14.666,4.708,14.666H55.838Z"
                                transform="translate(12.069 21.98)" fill="#ffd400"></path>
                            <path id="Path_2848" data-name="Path 2848"
                                d="M55.778,49.989a2.3,2.3,0,0,1,.725,1.629,1.961,1.961,0,0,1-.725,1.629,2.291,2.291,0,0,1-1.629.727,2.4,2.4,0,0,1-2.356-2.356,1.965,1.965,0,0,1,.727-1.629,2.193,2.193,0,0,1,3.258,0"
                                transform="translate(40.922 38.924)" fill="#8cf2ff"></path>
                            <path id="Path_2849" data-name="Path 2849"
                                d="M53.249,26.014a2.3,2.3,0,0,1,.723,1.629,1.766,1.766,0,0,1-.723,1.629A2.3,2.3,0,0,1,51.618,30a2.4,2.4,0,0,1-2.354-2.356,1.963,1.963,0,0,1,.725-1.629,2.3,2.3,0,0,1,1.629-.725,1.766,1.766,0,0,1,1.631.725"
                                transform="translate(38.924 19.981)" fill="#8cf2ff"></path>
                            <path id="Path_2850" data-name="Path 2850"
                                d="M44.448,7a2.3,2.3,0,0,1,.723,1.631,1.966,1.966,0,0,1-.723,1.629,2.3,2.3,0,0,1-1.631.725,2.4,2.4,0,0,1-2.354-2.354A1.966,1.966,0,0,1,41.188,7a2.3,2.3,0,0,1,1.629-.723A2.7,2.7,0,0,1,44.448,7"
                                transform="translate(31.97 4.956)" fill="#8cf2ff"></path>
                            <path id="Path_2851" data-name="Path 2851"
                                d="M20.372.723a2.3,2.3,0,0,1,.723,1.629,1.769,1.769,0,0,1-.723,1.631,2.3,2.3,0,0,1-1.631.725,2.4,2.4,0,0,1-2.354-2.356A1.966,1.966,0,0,1,17.112.723,2.3,2.3,0,0,1,18.741,0a1.765,1.765,0,0,1,1.631.723"
                                transform="translate(12.947 0)" fill="#8cf2ff"></path>
                            <path id="Path_2852" data-name="Path 2852"
                                d="M15.314,48.775a2.3,2.3,0,0,1,.725,1.629,1.961,1.961,0,0,1-.725,1.629,2.29,2.29,0,0,1-1.629.725A2.4,2.4,0,0,1,11.329,50.4a1.961,1.961,0,0,1,.725-1.629,2.3,2.3,0,0,1,1.631-.725,1.763,1.763,0,0,1,1.629.725"
                                transform="translate(8.951 37.965)" fill="#19ab5c"></path>
                            <path id="Path_2853" data-name="Path 2853"
                                d="M12.785,7a2.3,2.3,0,0,1,.723,1.631,1.966,1.966,0,0,1-.723,1.629,2.3,2.3,0,0,1-1.631.725A2.4,2.4,0,0,1,8.8,8.626,1.971,1.971,0,0,1,9.525,7a2.2,2.2,0,0,1,3.26,0"
                                transform="translate(6.953 4.956)" fill="#8cf2ff"></path>
                            <path id="Path_2854" data-name="Path 2854"
                                d="M3.985,33.6a2.3,2.3,0,0,1,.723,1.629,1.766,1.766,0,0,1-.723,1.629,2.3,2.3,0,0,1-1.631.727A2.4,2.4,0,0,1,0,35.23,1.968,1.968,0,0,1,.725,33.6a2.29,2.29,0,0,1,1.629-.725,1.966,1.966,0,0,1,1.631.725"
                                transform="translate(0 25.976)" fill="#8cf2ff"></path>
                            <path id="Path_2855" data-name="Path 2855"
                                d="M13.153,50.3A2.4,2.4,0,0,0,10.8,47.95H6.272v4.527H10.8A2.056,2.056,0,0,0,13.153,50.3"
                                transform="translate(4.956 37.886)" fill="#19ab5c"></path>
                            <path id="Path_2856" data-name="Path 2856"
                                d="M17.528,48.05a2.355,2.355,0,0,0,0,4.71H71.854V48.233H17.528Z"
                                transform="translate(11.989 37.965)" fill="#19ab5c"></path>
                        </g>
                    </g>
                </g>
                <line id="Line_33" data-name="Line 33" x2="193" transform="translate(13.5 146.5)" fill="none"
                    stroke="#dfdfdf" stroke-width="2"></line>
                <g id="Group_605" data-name="Group 605">
                    <g id="Group_604" data-name="Group 604" clip-path="url(#clip-path-2)">
                        <path id="Path_2857" data-name="Path 2857"
                            d="M171.962,94.741l-.482-.682a13.944,13.944,0,0,1-1.268-2.191,14.558,14.558,0,0,1-1.134-3.722,7.724,7.724,0,0,1-.14-1.145,9.084,9.084,0,0,1-.051-1.258,14.121,14.121,0,0,1,2.58-8.081,13.839,13.839,0,0,1,4.9-4.354l.765-.395.8-.324a13.011,13.011,0,0,1,1.664-.534c.627-.168,1.124-.219,1.706-.327a16.22,16.22,0,0,1,1.809-.095,13.641,13.641,0,0,1,6.881,1.865,13.972,13.972,0,0,1,5.048,4.971,14.266,14.266,0,0,1,1.9,6.551,13.75,13.75,0,0,1-1.266,6.221,13.52,13.52,0,0,1-3.384,4.544,13.143,13.143,0,0,1-4.1,2.452,12.986,12.986,0,0,1-3.573.835,9.054,9.054,0,0,1-1.359.06,7.335,7.335,0,0,1-1-.043l-.831-.083.832.06a7.353,7.353,0,0,0,1,.017,8.889,8.889,0,0,0,1.347-.1,13.5,13.5,0,0,0,7.475-3.433,13.323,13.323,0,0,0,4.233-10.5,13.571,13.571,0,0,0-1.967-6.167A12.882,12.882,0,0,0,183.12,72.8a14.877,14.877,0,0,0-1.6.121c-.528.11-1.155.207-1.6.349a11.672,11.672,0,0,0-1.5.527l-.722.311-.681.377a12.4,12.4,0,0,0-4.3,4.026,12.694,12.694,0,0,0-1.935,4.885,12.492,12.492,0,0,0-.167,2.331,7.555,7.555,0,0,0,.07,1.057c.015.169.031.335.046.5s.071.353.1.525a12.7,12.7,0,0,0,1.079,3.243,11.643,11.643,0,0,0,1.14,1.857l.5.669Z"
                            fill="#37b0bc"></path>
                        <path id="Path_2858" data-name="Path 2858" d="M199.131,91.891l21.11,8.91-21.8-7.061Z"
                            fill="#37b0bc">
                        </path>
                        <path id="Path_2859" data-name="Path 2859" d="M189.855,101.928l8.6,15.55-10.268-14.5Z"
                            fill="#37b0bc">
                        </path>
                        <path id="Path_2860" data-name="Path 2860" d="M198.464,76.871l21.215-8.66L199.288,78.665Z"
                            fill="#37b0bc"></path>
                        <path id="Path_2861" data-name="Path 2861" d="M185.862,66.618l4.851-22.395-2.907,22.73Z"
                            fill="#37b0bc">
                        </path>
                        <path id="Path_2862" data-name="Path 2862" d="M169.871,74.846,154.347,57.993l16.917,15.455Z"
                            fill="#37b0bc"></path>
                        <path id="Path_2863" data-name="Path 2863" d="M165.921,92.837l-22.164,5.814,21.581-7.7Z"
                            fill="#37b0bc">
                        </path>
                        <path id="Path_2864" data-name="Path 2864" d="M163.077,83.5l-14.356-5.264,14.914,3.371Z"
                            fill="#37b0bc">
                        </path>
                        <path id="Path_2865" data-name="Path 2865" d="M176.472,66.389l-3.344-14.921,5.237,14.365Z"
                            fill="#37b0bc"></path>
                        <path id="Path_2866" data-name="Path 2866" d="M193.573,70.783l10.06-11.516L195.14,71.983Z"
                            fill="#37b0bc"></path>
                        <path id="Path_2867" data-name="Path 2867" d="M200.068,85.075l15.254,1.054-15.263.92Z"
                            fill="#37b0bc">
                        </path>
                        <path id="Path_2868" data-name="Path 2868" d="M196.856,97.161l9.17,11.2-10.609-9.849Z"
                            fill="#37b0bc">
                        </path>
                        <path id="Path_2869" data-name="Path 2869"
                            d="M177.356,100.077l-.907,1.614-1.042,1.854a22.044,22.044,0,0,0-1.154,2.386q-.3.657-.615,1.366a11.546,11.546,0,0,0-.608,1.5c-.356,1.058-.76,2.172-1.134,3.34-.282,1.186-.6,2.414-.884,3.674-.17,1.273-.434,2.567-.54,3.875a38.569,38.569,0,0,0-.159,3.925q.017.977.033,1.934.09.954.176,1.882c.075,1.246.356,2.418.52,3.552.274,1.108.464,2.182.781,3.132a28.752,28.752,0,0,0,2.5,6.205,28.86,28.86,0,0,1-3.083-6.005c-.41-.936-.7-2-1.086-3.11-.274-1.136-.671-2.318-.866-3.586q-.178-.947-.36-1.923-.108-.987-.218-1.995a39.687,39.687,0,0,1-.209-4.1c-.015-1.379.132-2.754.194-4.119.171-1.349.389-2.674.576-3.965.279-1.269.6-2.487.876-3.652a13.21,13.21,0,0,1,.51-1.679c.186-.541.366-1.064.539-1.565a25.434,25.434,0,0,1,1.01-2.675l.868-1.94c.48-1.076.756-1.69.756-1.69Z"
                            fill="#37b0bc"></path>
                        <path id="Path_2870" data-name="Path 2870"
                            d="M180.782,87.926l-.057-.058a3.673,3.673,0,0,0,0-5.194l.057-.057a3.673,3.673,0,0,0,5.194,0l.058.057a3.671,3.671,0,0,0,0,5.194l-.058.058a3.671,3.671,0,0,0-5.194,0"
                            fill="#37b0bc"></path>
                        <path id="Path_2871" data-name="Path 2871"
                            d="M149.961,108.826l1.1,2.24,2.473.36-1.789,1.744.422,2.463-2.211-1.162-2.212,1.162.422-2.463-1.789-1.744,2.473-.36Z"
                            fill="#37b0bc"></path>
                        <path id="Path_2872" data-name="Path 2872"
                            d="M211.27,111.464l.893,1.809,2,.29-1.445,1.408.341,1.987-1.785-.938-1.785.938.341-1.987-1.444-1.408,1.995-.29Z"
                            fill="#37b0bc"></path>
                        <path id="Path_2873" data-name="Path 2873"
                            d="M148.721,67.578l.893,1.809,2,.29-1.445,1.407.341,1.988-1.785-.938-1.785.938.342-1.988-1.445-1.407,1.995-.29Z"
                            fill="#37b0bc"></path>
                        <path id="Path_2874" data-name="Path 2874"
                            d="M214.158,57.112l.893,1.809,2,.29L215.6,60.618l.341,1.988-1.785-.938-1.785.938.341-1.988-1.445-1.407,2-.29Z"
                            fill="#37b0bc"></path>
                        <path id="Path_2875" data-name="Path 2875"
                            d="M230.6,86.1l.893,1.809,1.995.29L232.041,89.6l.341,1.987-1.785-.938-1.785.938.341-1.987L227.708,88.2l2-.29Z"
                            fill="#37b0bc"></path>
                        <path id="Path_2876" data-name="Path 2876"
                            d="M134.676,80.753l.893,1.809,2,.29-1.445,1.407.341,1.988-1.785-.938-1.785.938.341-1.988-1.445-1.407,2-.29Z"
                            fill="#37b0bc"></path>
                        <path id="Path_2877" data-name="Path 2877"
                            d="M40.977,97.893l.269-.6a11,11,0,0,0,.648-1.889,11.6,11.6,0,0,0,.31-3.053,6.5,6.5,0,0,0-.066-.908,7.7,7.7,0,0,0-.152-.982,11.127,11.127,0,0,0-.6-2A11.313,11.313,0,0,0,38.756,84.6,10.929,10.929,0,0,0,34.3,81.975l-.652-.188-.672-.129a10.39,10.39,0,0,0-1.37-.16c-.511-.034-.9,0-1.369.008a12.665,12.665,0,0,0-1.416.2A10.781,10.781,0,0,0,23.783,84.2a11.008,11.008,0,0,0-3.149,4.616,11.263,11.263,0,0,0-.476,5.361A10.856,10.856,0,0,0,22.087,98.8a10.677,10.677,0,0,0,3.312,3,10.782,10.782,0,0,0,6.437,1.375,7.174,7.174,0,0,0,1.06-.161,5.677,5.677,0,0,0,.77-.186l.631-.191-.636.174a5.889,5.889,0,0,1-.772.165,7.218,7.218,0,0,1-1.057.133,10.652,10.652,0,0,1-6.308-1.518,10.507,10.507,0,0,1-4.878-7.483,10.716,10.716,0,0,1,.582-5.074A10.168,10.168,0,0,1,29,82.615a12.2,12.2,0,0,1,1.254-.15c.426.005.926-.015,1.3.027a9.286,9.286,0,0,1,1.242.177l.6.132.586.188a9.775,9.775,0,0,1,3.938,2.462,9.827,9.827,0,0,1,2.728,5.264,6.164,6.164,0,0,1,.107.828c.013.133.027.264.039.393s0,.284,0,.422a10.14,10.14,0,0,1-.34,2.675,9.307,9.307,0,0,1-.6,1.61c-.185.388-.286.594-.286.594Z"
                            fill="#37b0bc"></path>
                        <path id="Path_2878" data-name="Path 2878" d="M19.515,99.83,4.534,109.945l15.795-8.789Z"
                            fill="#37b0bc">
                        </path>
                        <path id="Path_2879" data-name="Path 2879" d="M28.224,106.184,23.941,119.53l5.737-12.788Z"
                            fill="#37b0bc"></path>
                        <path id="Path_2880" data-name="Path 2880" d="M17.74,88.1,0,84.634l17.376,4.983Z"
                            fill="#37b0bc">
                        </path>
                        <path id="Path_2881" data-name="Path 2881" d="M25.931,78.246,18.763,61.653,24.476,78.8Z"
                            fill="#37b0bc">
                        </path>
                        <path id="Path_2882" data-name="Path 2882" d="M39.562,82.176l9.446-15.411L38.271,81.306Z"
                            fill="#37b0bc"></path>
                        <path id="Path_2883" data-name="Path 2883" d="M45.362,95.5,63.4,96.62,45.525,93.951Z"
                            fill="#37b0bc">
                        </path>
                        <path id="Path_2884" data-name="Path 2884" d="M46.14,87.837l10.309-6.263-11.03,4.883Z"
                            fill="#37b0bc">
                        </path>
                        <path id="Path_2885" data-name="Path 2885" d="M33.164,76.636l.312-12.058L31.613,76.5Z"
                            fill="#37b0bc">
                        </path>
                        <path id="Path_2886" data-name="Path 2886" d="M20.6,82.645l-9.542-7.379,8.512,8.547Z"
                            fill="#37b0bc">
                        </path>
                        <path id="Path_2887" data-name="Path 2887" d="M17.749,94.7,6.1,97.839l11.953-1.616Z"
                            fill="#37b0bc">
                        </path>
                        <path id="Path_2888" data-name="Path 2888" d="M22.078,103.562l-5.39,10.067,6.709-9.241Z"
                            fill="#37b0bc">
                        </path>
                        <path id="Path_2889" data-name="Path 2889"
                            d="M37.615,102.845l.948,1.111,1.089,1.276a17.3,17.3,0,0,1,1.257,1.672l.683.962a9.162,9.162,0,0,1,.7,1.065c.437.765.92,1.565,1.386,2.411.4.876.835,1.777,1.245,2.71.326.959.728,1.92,1.009,2.917a30.588,30.588,0,0,1,.722,3.013q.136.759.269,1.5c.051.5.1,1,.15,1.482.133.976.094,1.926.14,2.829-.043.9-.027,1.76-.127,2.543a22.747,22.747,0,0,1-.989,5.185,22.836,22.836,0,0,0,1.471-5.118c.174-.788.238-1.658.366-2.574.038-.92.166-1.9.123-2.907q-.006-.761-.014-1.543c-.045-.52-.09-1.047-.135-1.577a31.884,31.884,0,0,0-.464-3.207c-.2-1.069-.522-2.111-.778-3.158-.338-1.018-.709-2.011-1.051-2.982-.409-.938-.841-1.833-1.234-2.692a10.594,10.594,0,0,0-.651-1.223l-.656-1.128a20.636,20.636,0,0,0-1.189-1.916c-.374-.529-.7-.99-.967-1.37l-.844-1.193Z"
                            fill="#37b0bc"></path>
                        <path id="Path_2890" data-name="Path 2890"
                            d="M33.236,94.86l-.052.052a3.341,3.341,0,0,0-4.727,0l-.052-.052a3.342,3.342,0,0,0,0-4.728l.052-.051a3.345,3.345,0,0,0,4.727,0l.052.051a3.342,3.342,0,0,0,0,4.728"
                            fill="#37b0bc"></path>
                        <path id="Path_2891" data-name="Path 2891"
                            d="M54.659,71.594l.986,2,2.205.32-1.6,1.555.377,2.2-1.973-1.037-1.972,1.037.377-2.2-1.6-1.555,2.205-.32Z"
                            fill="#37b0bc"></path>
                        <path id="Path_2892" data-name="Path 2892"
                            d="M59.028,111.276l.986,2,2.205.32-1.6,1.556.377,2.2-1.973-1.037-1.972,1.037.376-2.2-1.594-1.556,2.2-.32Z"
                            fill="#37b0bc"></path>
                        <path id="Path_2893" data-name="Path 2893"
                            d="M8.87,65.128l.986,2,2.205.32L10.466,69l.376,2.195L8.87,70.161,6.9,71.2,7.274,69,5.679,67.446l2.2-.32Z"
                            fill="#37b0bc"></path>
                        <path id="Path_2894" data-name="Path 2894"
                            d="M35.725,116.495l1.266,2.564,2.829.412-2.047,2,.483,2.818-2.531-1.33-2.531,1.33.483-2.818-2.048-2,2.83-.412Z"
                            fill="#37b0bc"></path>
                        <path id="Path_2895" data-name="Path 2895"
                            d="M2.984,99.169l.882,1.786,1.97.286-1.426,1.39.337,1.963-1.763-.927-1.763.927.337-1.963-1.426-1.39,1.971-.286Z"
                            fill="#37b0bc"></path>
                        <path id="Path_2896" data-name="Path 2896"
                            d="M10.724,119.53l.562,1.14,1.258.182-.91.888.215,1.252-1.125-.591-1.125.591.215-1.252-.91-.888,1.258-.182Z"
                            fill="#37b0bc"></path>
                        <path id="Path_2897" data-name="Path 2897"
                            d="M28.666,61.508l.562,1.14,1.258.182-.91.888.215,1.252-1.125-.591-1.125.591.215-1.252-.91-.888,1.258-.182Z"
                            fill="#37b0bc"></path>
                        <path id="Path_2898" data-name="Path 2898"
                            d="M53.249,31.345l.224-.495a9.226,9.226,0,0,0,.535-1.56,9.531,9.531,0,0,0,.258-2.518,5.036,5.036,0,0,0-.054-.75,5.921,5.921,0,0,0-.125-.81,9.2,9.2,0,0,0-2.66-4.84A9.034,9.034,0,0,0,47.754,18.2l-.538-.156-.555-.106a8.48,8.48,0,0,0-1.13-.133c-.422-.028-.745,0-1.131,0a10.229,10.229,0,0,0-1.168.166,8.9,8.9,0,0,0-4.162,2.052,9.092,9.092,0,0,0-2.6,3.808,9.3,9.3,0,0,0-.4,4.424,8.96,8.96,0,0,0,1.589,3.815,8.784,8.784,0,0,0,2.731,2.48,8.589,8.589,0,0,0,2.923,1.054A8.5,8.5,0,0,0,45.7,35.7a5.944,5.944,0,0,0,.875-.133,4.613,4.613,0,0,0,.635-.153l.52-.157-.523.144a4.848,4.848,0,0,1-.638.134,5.8,5.8,0,0,1-.873.109,8.794,8.794,0,0,1-5.205-1.257,8.676,8.676,0,0,1-4.019-6.179,8.836,8.836,0,0,1,.485-4.186,8.567,8.567,0,0,1,4.363-4.659,8.414,8.414,0,0,1,2.052-.633,9.849,9.849,0,0,1,1.035-.123c.352,0,.764-.013,1.068.022a7.531,7.531,0,0,1,1.025.149l.5.108.483.155a8.076,8.076,0,0,1,3.248,2.035,8.251,8.251,0,0,1,1.848,2.878,8.01,8.01,0,0,1,.4,1.469,4.613,4.613,0,0,1,.088.684c.012.109.022.218.033.324s0,.234,0,.348a8.289,8.289,0,0,1-.284,2.207,7.47,7.47,0,0,1-.5,1.329l-.235.489Z"
                            fill="#37b0bc"></path>
                        <path id="Path_2899" data-name="Path 2899" d="M35.536,32.927l-12.37,8.336,13.042-7.24Z"
                            fill="#37b0bc">
                        </path>
                        <path id="Path_2900" data-name="Path 2900" d="M42.719,38.178l-3.545,11.01,4.744-10.549Z"
                            fill="#37b0bc">
                        </path>
                        <path id="Path_2901" data-name="Path 2901" d="M34.081,23.249,19.444,20.373,33.779,24.5Z"
                            fill="#37b0bc">
                        </path>
                        <path id="Path_2902" data-name="Path 2902" d="M40.848,15.121l-5.9-13.7,4.7,14.156Z"
                            fill="#37b0bc">
                        </path>
                        <path id="Path_2903" data-name="Path 2903" d="M52.094,18.375,59.9,5.665,51.03,17.656Z"
                            fill="#37b0bc">
                        </path>
                        <path id="Path_2904" data-name="Path 2904" d="M56.87,29.374l14.888.938L57.007,28.1Z"
                            fill="#37b0bc">
                        </path>
                        <path id="Path_2905" data-name="Path 2905" d="M57.518,23.052l8.512-5.161-9.106,4.021Z"
                            fill="#37b0bc">
                        </path>
                        <path id="Path_2906" data-name="Path 2906" d="M46.818,13.8l.268-9.95-1.547,9.833Z"
                            fill="#37b0bc">
                        </path>
                        <path id="Path_2907" data-name="Path 2907" d="M36.443,18.747l-7.869-6.1,7.018,7.06Z"
                            fill="#37b0bc">
                        </path>
                        <path id="Path_2908" data-name="Path 2908" d="M34.084,28.69l-9.613,2.584,9.865-1.324Z"
                            fill="#37b0bc">
                        </path>
                        <path id="Path_2909" data-name="Path 2909" d="M37.648,36.009l-4.455,8.3,5.544-7.621Z"
                            fill="#37b0bc">
                        </path>
                        <path id="Path_2910" data-name="Path 2910"
                            d="M50.471,35.43l.782.918c.249.292.552.646.9,1.054a14.009,14.009,0,0,1,1.036,1.38l.563.794a7.536,7.536,0,0,1,.576.879c.361.632.758,1.293,1.143,1.992.329.723.688,1.467,1.024,2.237.269.792.6,1.585.832,2.408a25.072,25.072,0,0,1,.592,2.487c.074.417.149.83.222,1.24q.062.621.122,1.224c.108.805.076,1.589.113,2.334-.036.742-.023,1.452-.106,2.1a18.792,18.792,0,0,1-.82,4.277,18.766,18.766,0,0,0,1.217-4.222c.145-.65.2-1.367.3-2.124.033-.758.139-1.564.1-2.4,0-.418-.006-.844-.01-1.274-.037-.429-.074-.864-.111-1.3a26.434,26.434,0,0,0-.379-2.647c-.164-.883-.43-1.743-.64-2.607-.278-.841-.584-1.66-.865-2.461-.337-.775-.693-1.514-1.017-2.223a8.624,8.624,0,0,0-.536-1.009l-.54-.932a16.88,16.88,0,0,0-.98-1.582c-.308-.437-.577-.817-.8-1.131l-.7-.985Z"
                            fill="#37b0bc"></path>
                        <path id="Path_2911" data-name="Path 2911"
                            d="M46.864,28.836l-.043.043a2.759,2.759,0,0,0-3.9,0l-.043-.043a2.758,2.758,0,0,0,0-3.9l.043-.043a2.759,2.759,0,0,0,3.9,0l.043.043a2.758,2.758,0,0,0,0,3.9"
                            fill="#37b0bc"></path>
                        <path id="Path_2912" data-name="Path 2912"
                            d="M66.547,34.689l.638,1.293,1.427.207L67.579,37.2l.244,1.422-1.276-.672-1.277.672.244-1.422-1.033-1.007,1.427-.207Z"
                            fill="#37b0bc"></path>
                        <path id="Path_2913" data-name="Path 2913"
                            d="M17.386,6.461l1.028,2.083,2.3.334L19.05,10.5l.392,2.29-2.056-1.081L15.33,12.789l.392-2.29L14.059,8.878l2.3-.334Z"
                            fill="#37b0bc"></path>
                        <path id="Path_2914" data-name="Path 2914"
                            d="M26.945,44.141l1.028,2.083,2.3.334-1.663,1.621L29,50.469l-2.056-1.081-2.056,1.081.392-2.29-1.663-1.621,2.3-.334Z"
                            fill="#37b0bc"></path>
                        <path id="Path_2915" data-name="Path 2915"
                            d="M54.274,0l.745,1.51,1.666.242L55.479,2.927l.285,1.659L54.274,3.8l-1.49.783.284-1.659L51.863,1.752l1.666-.242Z"
                            fill="#37b0bc"></path>
                        <path id="Path_2916" data-name="Path 2916"
                            d="M11.546,30.177l1,2.025,2.236.325L13.164,34.1l.381,2.226-2-1.051-2,1.051L9.928,34.1,8.311,32.527l2.235-.325Z"
                            fill="#37b0bc"></path>
                        <path id="Path_2917" data-name="Path 2917"
                            d="M167.252,38.7l-.214-.4a7.56,7.56,0,0,1-.532-1.273,7.946,7.946,0,0,1-.355-2.09,4.432,4.432,0,0,1,0-.629,5.081,5.081,0,0,1,.06-.683,7.711,7.711,0,0,1,.325-1.409,7.8,7.8,0,0,1,1.632-2.779,7.543,7.543,0,0,1,2.948-2.012l.442-.161.457-.119a7.283,7.283,0,0,1,.936-.173c.351-.046.623-.04.945-.057a8.663,8.663,0,0,1,.985.074,7.453,7.453,0,0,1,3.589,1.486,7.628,7.628,0,0,1,2.382,3.038,7.79,7.79,0,0,1,.574,3.672,7.514,7.514,0,0,1-1.117,3.275,7.41,7.41,0,0,1-2.145,2.221,7.465,7.465,0,0,1-4.374,1.243,5.009,5.009,0,0,1-.738-.063,4.006,4.006,0,0,1-.539-.093l-.444-.1.447.09a4.065,4.065,0,0,0,.539.079,4.932,4.932,0,0,0,.735.042,7.357,7.357,0,0,0,4.278-1.335,7.254,7.254,0,0,0,3.018-5.382,7.406,7.406,0,0,0-.634-3.47,7.026,7.026,0,0,0-5.648-4.068,8.319,8.319,0,0,0-.871-.045c-.294.022-.64.031-.892.077a6.447,6.447,0,0,0-.848.18l-.411.118-.395.156a6.759,6.759,0,0,0-2.6,1.878,6.922,6.922,0,0,0-1.386,2.5,6.824,6.824,0,0,0-.253,1.248,4.145,4.145,0,0,0-.035.576q-.006.138-.009.273c0,.094.013.195.019.291a6.889,6.889,0,0,0,.358,1.828,6.285,6.285,0,0,0,.487,1.082c.145.259.223.4.223.4Z"
                            fill="#37b0bc"></path>
                        <path id="Path_2918" data-name="Path 2918" d="M182.132,39.048l10.79,6.284L181.632,40Z"
                            fill="#37b0bc">
                        </path>
                        <path id="Path_2919" data-name="Path 2919" d="M176.422,43.829l3.564,9-4.541-8.551Z"
                            fill="#37b0bc">
                        </path>
                        <path id="Path_2920" data-name="Path 2920" d="M182.816,30.885l12.067-3.2-11.746,4.231Z"
                            fill="#37b0bc">
                        </path>
                        <path id="Path_2921" data-name="Path 2921" d="M176.72,24.468,180.9,12.7l-3.151,12.081Z"
                            fill="#37b0bc">
                        </path>
                        <path id="Path_2922" data-name="Path 2922" d="M167.506,27.8l-7.219-10.188,8.069,9.529Z"
                            fill="#37b0bc">
                        </path>
                        <path id="Path_2923" data-name="Path 2923" d="M164.119,37.251l-12.383,1.6,12.2-2.661Z"
                            fill="#37b0bc">
                        </path>
                        <path id="Path_2924" data-name="Path 2924" d="M163.231,32.006l-7.392-3.843,7.826,2.859Z"
                            fill="#37b0bc">
                        </path>
                        <path id="Path_2925" data-name="Path 2925" d="M171.66,23.691l-.768-8.3,1.831,8.128Z"
                            fill="#37b0bc">
                        </path>
                        <path id="Path_2926" data-name="Path 2926" d="M180.6,27.255l6.237-5.524-5.473,6.281Z"
                            fill="#37b0bc">
                        </path>
                        <path id="Path_2927" data-name="Path 2927" d="M183.113,35.43l8.17,1.631-8.312-.565Z"
                            fill="#37b0bc">
                        </path>
                        <path id="Path_2928" data-name="Path 2928" d="M180.537,41.739l4.177,6.691-5.048-6.061Z"
                            fill="#37b0bc">
                        </path>
                        <path id="Path_2929" data-name="Path 2929"
                            d="M169.8,41.959l-.6.81c-.192.257-.424.57-.692.928a12.192,12.192,0,0,0-.789,1.21l-.427.7a6.332,6.332,0,0,0-.432.764c-.267.548-.563,1.121-.846,1.727-.236.622-.494,1.263-.734,1.924-.18.676-.413,1.357-.561,2.056a20.862,20.862,0,0,0-.358,2.111c-.04.352-.079.7-.118,1.047-.011.348-.023.692-.035,1.03-.046.677.025,1.331.033,1.956.072.617.1,1.211.205,1.746a15.712,15.712,0,0,0,.92,3.527,15.761,15.761,0,0,1-1.25-3.46c-.156-.534-.24-1.13-.37-1.756-.068-.632-.2-1.3-.218-2-.02-.349-.041-.7-.061-1.064.007-.36.014-.726.02-1.093a22.272,22.272,0,0,1,.173-2.231c.088-.746.264-1.48.391-2.213.186-.717.4-1.418.588-2.1.239-.666.495-1.3.727-1.912a7.28,7.28,0,0,1,.392-.872q.208-.419.4-.809a14.521,14.521,0,0,1,.732-1.375l.6-.988.526-.861Z"
                            fill="#37b0bc"></path>
                        <path id="Path_2930" data-name="Path 2930"
                            d="M172.447,36.253l.038.033a2.31,2.31,0,0,1,3.258-.217l.033-.038a2.31,2.31,0,0,1-.217-3.258l-.038-.034a2.308,2.308,0,0,1-3.258.218l-.034.038a2.308,2.308,0,0,1,.218,3.258"
                            fill="#37b0bc"></path>
                        <path id="Path_2931" data-name="Path 2931"
                            d="M172.723,51.034l.841,1.7,1.881.274-1.361,1.326.322,1.874-1.683-.885-1.683.885.322-1.874L170,53.012l1.881-.274Z"
                            fill="#37b0bc"></path>
                        <path id="Path_2932" data-name="Path 2932"
                            d="M154.459,42.769l.841,1.7,1.881.273-1.362,1.328.322,1.873-1.682-.885-1.683.885.322-1.873-1.362-1.328,1.881-.273Z"
                            fill="#37b0bc"></path>
                        <path id="Path_2933" data-name="Path 2933"
                            d="M154.459,16.955l.841,1.7,1.881.274-1.362,1.326.322,1.874-1.682-.885-1.683.885.322-1.874-1.362-1.326,1.881-.274Z"
                            fill="#37b0bc"></path>
                        <path id="Path_2934" data-name="Path 2934"
                            d="M195.135,19.143l.842,1.7,1.881.274L196.5,22.447l.322,1.873-1.683-.884-1.682.884.322-1.873-1.362-1.326,1.881-.274Z"
                            fill="#37b0bc"></path>
                        <path id="Path_2935" data-name="Path 2935"
                            d="M192.413,52.038l.7,1.415,1.562.227-1.13,1.1.266,1.556-1.4-.735-1.4.735.266-1.556-1.13-1.1,1.562-.227Z"
                            fill="#37b0bc"></path>
                    </g>
                </g>
            </svg>