<svg width="24" height="24" viewBox="0 0 24 24" fill="none" xmlns="http://www.w3.org/2000/svg">
<g clip-path="url(#clip0_621_7988)">
<path d="M20.0062 10.275L12.5062 3.45933C12.368 3.33284 12.1874 3.2627 12 3.2627C11.8126 3.2627 11.632 3.33284 11.4937 3.45933L3.99375 10.275C3.91828 10.3462 3.85783 10.4319 3.81597 10.5269C3.77411 10.6219 3.75168 10.7243 3.75 10.8281V19.5C3.75 19.6989 3.82902 19.8896 3.96967 20.0303C4.11032 20.1709 4.30109 20.25 4.5 20.25H19.5C19.6989 20.25 19.8897 20.1709 20.0303 20.0303C20.171 19.8896 20.25 19.6989 20.25 19.5V10.8281C20.2483 10.7243 20.2259 10.6219 20.184 10.5269C20.1422 10.4319 20.0817 10.3462 20.0062 10.275Z" stroke="white" stroke-width="1.3" stroke-linecap="round" stroke-linejoin="round"/>
<g clip-path="url(#clip1_621_7988)">
<mask id="path-2-inside-1_621_7988" fill="white">
<path d="M15.9284 8.06239L14.6 8.59378L14.3403 8L13.751 8.06385C13.1596 8.12769 12.6446 8.34137 12.1521 8.73025C11.6595 8.34041 11.1482 8.12693 10.5649 8.06383L9.97535 8L9.71589 8.59378L8.38719 8.06239L5.89478 13.878L7.38306 14.4456V18.6668L12.1518 16.2824L16.9206 18.6668V14.4495L18.4211 13.8782L15.9284 8.06239ZM8.11673 17.4797V14.7257L11.2411 15.9176L8.11673 17.4797ZM11.785 15.3396L6.87004 13.4647L8.7795 9.00927L9.42162 9.26628L7.78148 13.0174L11.785 14.5571L11.785 15.3396ZM11.785 13.7709L9.02205 12.7084C9.49406 12.4671 10.0546 12.4359 10.5661 12.644L11.785 13.1776L11.785 13.7709ZM11.785 12.3767L10.8479 11.9666C10.2673 11.7289 9.64105 11.7125 9.07272 11.8955L10.4319 8.78747C10.5074 8.8067 11.0896 8.78815 11.785 9.37829V12.3767ZM12.5186 9.37875C13.2011 8.80259 13.8453 8.79733 13.884 8.78749L15.2375 11.8834C14.702 11.7127 14.1197 11.7358 13.5555 11.9666L12.5186 12.3912V9.37875ZM12.5186 13.184L13.8333 12.6457C14.3305 12.442 14.8492 12.4687 15.2994 12.7054L12.5186 13.7716V13.184ZM16.1869 17.4797L13.0633 15.9178L16.1869 14.7287V17.4797ZM12.5186 15.3401V14.5573L16.5344 13.0177L14.894 9.26628L15.5362 9.0093L17.4456 13.4645L12.5186 15.3401Z"/>
</mask>
<path d="M15.9284 8.06239L14.6 8.59378L14.3403 8L13.751 8.06385C13.1596 8.12769 12.6446 8.34137 12.1521 8.73025C11.6595 8.34041 11.1482 8.12693 10.5649 8.06383L9.97535 8L9.71589 8.59378L8.38719 8.06239L5.89478 13.878L7.38306 14.4456V18.6668L12.1518 16.2824L16.9206 18.6668V14.4495L18.4211 13.8782L15.9284 8.06239ZM8.11673 17.4797V14.7257L11.2411 15.9176L8.11673 17.4797ZM11.785 15.3396L6.87004 13.4647L8.7795 9.00927L9.42162 9.26628L7.78148 13.0174L11.785 14.5571L11.785 15.3396ZM11.785 13.7709L9.02205 12.7084C9.49406 12.4671 10.0546 12.4359 10.5661 12.644L11.785 13.1776L11.785 13.7709ZM11.785 12.3767L10.8479 11.9666C10.2673 11.7289 9.64105 11.7125 9.07272 11.8955L10.4319 8.78747C10.5074 8.8067 11.0896 8.78815 11.785 9.37829V12.3767ZM12.5186 9.37875C13.2011 8.80259 13.8453 8.79733 13.884 8.78749L15.2375 11.8834C14.702 11.7127 14.1197 11.7358 13.5555 11.9666L12.5186 12.3912V9.37875ZM12.5186 13.184L13.8333 12.6457C14.3305 12.442 14.8492 12.4687 15.2994 12.7054L12.5186 13.7716V13.184ZM16.1869 17.4797L13.0633 15.9178L16.1869 14.7287V17.4797ZM12.5186 15.3401V14.5573L16.5344 13.0177L14.894 9.26628L15.5362 9.0093L17.4456 13.4645L12.5186 15.3401Z" fill="white"/>
<path d="M15.9284 8.06239L16.8475 7.66844L16.4631 6.77146L15.557 7.13392L15.9284 8.06239ZM14.6 8.59378L13.6837 8.99443L14.0719 9.88206L14.9714 9.52225L14.6 8.59378ZM14.3403 8L15.2566 7.59934L14.9624 6.92675L14.2326 7.00582L14.3403 8ZM13.751 8.06385L13.8583 9.05808L13.8587 9.05804L13.751 8.06385ZM12.1521 8.73025L11.5315 9.51438L12.1514 10.005L12.7718 9.51506L12.1521 8.73025ZM10.5649 8.06383L10.4573 9.05802L10.4574 9.05803L10.5649 8.06383ZM9.97535 8L10.083 7.00581L9.353 6.92678L9.05901 7.5996L9.97535 8ZM9.71589 8.59378L9.34455 9.52227L10.2442 9.88209L10.6322 8.99418L9.71589 8.59378ZM8.38719 8.06239L8.75853 7.13389L7.85245 6.77152L7.46805 7.66847L8.38719 8.06239ZM5.89478 13.878L4.97563 13.4841L4.5654 14.4413L5.53845 14.8124L5.89478 13.878ZM7.38306 14.4456H8.38306V13.7567L7.73939 13.5113L7.38306 14.4456ZM7.38306 18.6668H6.38306V20.2848L7.83026 19.5612L7.38306 18.6668ZM12.1518 16.2824L12.599 15.388L12.1518 15.1644L11.7046 15.388L12.1518 16.2824ZM16.9206 18.6668L16.4734 19.5612L17.9206 20.2848V18.6668H16.9206ZM16.9206 14.4495L16.5648 13.515L15.9206 13.7602V14.4495H16.9206ZM18.4211 13.8782L18.7769 14.8128L19.7507 14.442L19.3402 13.4843L18.4211 13.8782ZM8.11673 17.4797H7.11673V19.0977L8.56393 18.3742L8.11673 17.4797ZM8.11673 14.7257L8.47316 13.7913L7.11673 13.2739V14.7257H8.11673ZM11.2411 15.9176L11.6883 16.812L13.7237 15.7943L11.5976 14.9832L11.2411 15.9176ZM11.785 15.3396L11.4286 16.274L12.7851 16.7914L12.785 15.3396L11.785 15.3396ZM6.87004 13.4647L5.9509 13.0708L5.54071 14.0279L6.51362 14.399L6.87004 13.4647ZM8.7795 9.00927L9.15109 8.08088L8.24486 7.71816L7.86035 8.61535L8.7795 9.00927ZM9.42162 9.26628L10.3379 9.6669L10.7513 8.72136L9.79321 8.33789L9.42162 9.26628ZM7.78148 13.0174L6.86523 12.6168L6.44615 13.5753L7.42252 13.9508L7.78148 13.0174ZM11.785 14.5571L12.785 14.5571L12.785 13.8703L12.144 13.6238L11.785 14.5571ZM11.785 13.7709L11.4261 14.7043L12.7851 15.2269L12.785 13.7708L11.785 13.7709ZM9.02205 12.7084L8.56697 11.8179L6.5719 12.8375L8.66311 13.6417L9.02205 12.7084ZM10.5661 12.644L10.9672 11.728L10.9552 11.7227L10.943 11.7178L10.5661 12.644ZM11.785 13.1776L12.785 13.1776L12.785 12.5237L12.186 12.2615L11.785 13.1776ZM11.785 12.3767L11.3841 13.2928L12.785 13.906V12.3767H11.785ZM10.8479 11.9666L11.2489 11.0505L11.2379 11.0457L11.2268 11.0411L10.8479 11.9666ZM9.07272 11.8955L8.15649 11.4948L7.26782 13.5269L9.37911 12.8474L9.07272 11.8955ZM10.4319 8.78747L10.6787 7.81841L9.85586 7.60883L9.51565 8.3868L10.4319 8.78747ZM11.785 9.37829H12.785V8.91534L12.432 8.6158L11.785 9.37829ZM12.5186 9.37875L11.8735 8.61464L11.5186 8.91427V9.37875H12.5186ZM13.884 8.78749L14.8003 8.38691L14.4603 7.60928L13.6377 7.8183L13.884 8.78749ZM15.2375 11.8834L14.9339 12.8362L17.0387 13.507L16.1538 11.4828L15.2375 11.8834ZM13.5555 11.9666L13.1769 11.041L13.1766 11.0411L13.5555 11.9666ZM12.5186 12.3912H11.5186V13.8812L12.8975 13.3166L12.5186 12.3912ZM12.5186 13.184L12.1397 12.2586L11.5186 12.5129V13.184H12.5186ZM13.8333 12.6457L14.2123 13.5711L14.2124 13.571L13.8333 12.6457ZM15.2994 12.7054L15.6575 13.6391L17.7199 12.8483L15.7648 11.8203L15.2994 12.7054ZM12.5186 13.7716H11.5186V15.2261L12.8766 14.7054L12.5186 13.7716ZM16.1869 17.4797L15.7397 18.3741L17.1869 19.0978V17.4797H16.1869ZM13.0633 15.9178L12.7075 14.9833L10.5788 15.7936L12.616 16.8123L13.0633 15.9178ZM16.1869 14.7287H17.1869V13.2781L15.8311 13.7942L16.1869 14.7287ZM12.5186 15.3401H11.5186V16.7908L12.8744 16.2747L12.5186 15.3401ZM12.5186 14.5573L12.1606 13.6236L11.5186 13.8697V14.5573H12.5186ZM16.5344 13.0177L16.8923 13.9514L17.8702 13.5765L17.4506 12.617L16.5344 13.0177ZM14.894 9.26628L14.5224 8.33786L13.5642 8.72129L13.9777 9.66693L14.894 9.26628ZM15.5362 9.0093L16.4553 8.61536L16.0708 7.71827L15.1647 8.08087L15.5362 9.0093ZM17.4456 13.4645L17.8014 14.3991L18.7753 14.0283L18.3648 13.0705L17.4456 13.4645ZM15.557 7.13392L14.2286 7.66531L14.9714 9.52225L16.2998 8.99086L15.557 7.13392ZM15.5162 8.19312L15.2566 7.59934L13.4241 8.40066L13.6837 8.99443L15.5162 8.19312ZM14.2326 7.00582L13.6432 7.06967L13.8587 9.05804L14.448 8.99418L14.2326 7.00582ZM13.6436 7.06963C12.8562 7.15462 12.1653 7.44562 11.5324 7.94543L12.7718 9.51506C13.1238 9.23711 13.4629 9.10075 13.8583 9.05808L13.6436 7.06963ZM12.7727 7.94611C12.1416 7.44664 11.4545 7.15423 10.6725 7.06963L10.4574 9.05803C10.8418 9.09962 11.1775 9.23419 11.5315 9.51438L12.7727 7.94611ZM10.6726 7.06964L10.083 7.00581L9.86771 8.99419L10.4573 9.05802L10.6726 7.06964ZM9.05901 7.5996L8.79955 8.19337L10.6322 8.99418L10.8917 8.4004L9.05901 7.5996ZM10.0872 7.66528L8.75853 7.13389L8.01586 8.99088L9.34455 9.52227L10.0872 7.66528ZM7.46805 7.66847L4.97563 13.4841L6.81392 14.272L9.30634 8.45631L7.46805 7.66847ZM5.53845 14.8124L7.02673 15.38L7.73939 13.5113L6.2511 12.9437L5.53845 14.8124ZM6.38306 14.4456V18.6668H8.38306V14.4456H6.38306ZM7.83026 19.5612L12.599 17.1769L11.7046 15.388L6.93585 17.7723L7.83026 19.5612ZM11.7046 17.1769L16.4734 19.5612L17.3678 17.7723L12.599 15.388L11.7046 17.1769ZM17.9206 18.6668V14.4495H15.9206V18.6668H17.9206ZM17.2764 15.3841L18.7769 14.8128L18.0653 12.9437L16.5648 13.515L17.2764 15.3841ZM19.3402 13.4843L16.8475 7.66844L15.0092 8.45633L17.502 14.2722L19.3402 13.4843ZM9.11673 17.4797V14.7257H7.11673V17.4797H9.11673ZM7.7603 15.66L10.8847 16.8519L11.5976 14.9832L8.47316 13.7913L7.7603 15.66ZM10.7939 15.0231L7.66952 16.5853L8.56393 18.3742L11.6883 16.812L10.7939 15.0231ZM12.1415 14.4053L7.22647 12.5304L6.51362 14.399L11.4286 16.274L12.1415 14.4053ZM7.78919 13.8586L9.69864 9.40319L7.86035 8.61535L5.9509 13.0708L7.78919 13.8586ZM8.40791 9.93767L9.05003 10.1947L9.79321 8.33789L9.15109 8.08088L8.40791 9.93767ZM8.50537 8.86567L6.86523 12.6168L8.69772 13.418L10.3379 9.6669L8.50537 8.86567ZM7.42252 13.9508L11.426 15.4905L12.144 13.6238L8.14043 12.0841L7.42252 13.9508ZM10.785 14.5572L10.785 15.3397L12.785 15.3396L12.785 14.5571L10.785 14.5572ZM12.144 12.8375L9.38098 11.775L8.66311 13.6417L11.4261 14.7043L12.144 12.8375ZM9.47713 13.5988C9.6933 13.4883 9.95021 13.473 10.1893 13.5703L10.943 11.7178C10.1589 11.3987 9.29482 11.4459 8.56697 11.8179L9.47713 13.5988ZM10.1651 13.5601L11.384 14.0937L12.186 12.2615L10.9672 11.728L10.1651 13.5601ZM10.785 13.1776L10.785 13.7709L12.785 13.7708L12.785 13.1776L10.785 13.1776ZM12.186 11.4607L11.2489 11.0505L10.4469 12.8827L11.3841 13.2928L12.186 11.4607ZM11.2268 11.0411C10.4252 10.7129 9.55608 10.6894 8.76633 10.9436L9.37911 12.8474C9.72602 12.7357 10.1095 12.7448 10.469 12.892L11.2268 11.0411ZM9.98894 12.2961L11.3481 9.18814L9.51565 8.3868L8.15649 11.4948L9.98894 12.2961ZM10.1851 9.75653C10.2556 9.7745 10.3163 9.78164 10.3288 9.78318C10.3505 9.78588 10.3726 9.78808 10.3822 9.78907C10.4077 9.79165 10.4245 9.79337 10.4446 9.79606C10.4818 9.80104 10.5313 9.80968 10.5924 9.82775C10.7107 9.86271 10.904 9.94218 11.138 10.1408L12.432 8.6158C11.9706 8.22426 11.5251 8.01794 11.1595 7.90983C10.9787 7.85636 10.825 7.82915 10.7101 7.81376C10.6541 7.80627 10.6076 7.80167 10.5841 7.79928C10.5159 7.79236 10.5965 7.79748 10.6787 7.81841L10.1851 9.75653ZM10.785 9.37829V12.3767H12.785V9.37829H10.785ZM13.1637 10.1429C13.3843 9.95661 13.5879 9.87076 13.7273 9.82941C13.7978 9.80849 13.8542 9.7983 13.8911 9.79304C13.9095 9.79042 13.9248 9.78878 13.9393 9.78736C13.94 9.78729 13.9629 9.78512 13.9719 9.7842C13.9785 9.78352 13.9931 9.78199 14.0105 9.77969C14.0183 9.77865 14.069 9.77227 14.1303 9.75669L13.6377 7.8183C13.6966 7.80333 13.7437 7.79756 13.7467 7.79716C13.7538 7.79621 13.7592 7.79558 13.7621 7.79526C13.7651 7.79492 13.7672 7.79471 13.7677 7.79465C13.7683 7.79459 13.7676 7.79466 13.7627 7.79513C13.7588 7.7955 13.7522 7.79613 13.7451 7.79682C13.7143 7.79982 13.6676 7.80471 13.6095 7.81296C13.4934 7.82947 13.3389 7.85845 13.1581 7.91209C12.7951 8.01987 12.3354 8.22473 11.8735 8.61464L13.1637 10.1429ZM12.9677 9.18808L14.3213 12.284L16.1538 11.4828L14.8003 8.38691L12.9677 9.18808ZM15.5412 10.9306C14.7727 10.6857 13.949 10.7251 13.1769 11.041L13.9342 12.8921C14.2903 12.7464 14.6312 12.7397 14.9339 12.8362L15.5412 10.9306ZM13.1766 11.0411L12.1397 11.4657L12.8975 13.3166L13.9345 12.892L13.1766 11.0411ZM13.5186 12.3912V9.37875H11.5186V12.3912H13.5186ZM12.8975 14.1094L14.2123 13.5711L13.4544 11.7202L12.1397 12.2586L12.8975 14.1094ZM14.2124 13.571C14.4416 13.4771 14.6509 13.4942 14.834 13.5905L15.7648 11.8203C15.0476 11.4431 14.2193 11.4069 13.4542 11.7203L14.2124 13.571ZM14.9414 11.7717L12.1606 12.8379L12.8766 14.7054L15.6575 13.6391L14.9414 11.7717ZM13.5186 13.7716V13.184H11.5186V13.7716H13.5186ZM16.6341 16.5853L13.5105 15.0234L12.616 16.8123L15.7397 18.3741L16.6341 16.5853ZM13.419 16.8524L16.5427 15.6633L15.8311 13.7942L12.7075 14.9833L13.419 16.8524ZM15.1869 14.7287V17.4797H17.1869V14.7287H15.1869ZM13.5186 15.3401V14.5573H11.5186V15.3401H13.5186ZM12.8766 15.491L16.8923 13.9514L16.1764 12.084L12.1606 13.6236L12.8766 15.491ZM17.4506 12.617L15.8102 8.86564L13.9777 9.66693L15.6181 13.4183L17.4506 12.617ZM15.2655 10.1947L15.9077 9.93773L15.1647 8.08087L14.5224 8.33786L15.2655 10.1947ZM14.617 9.40323L16.5265 13.8584L18.3648 13.0705L16.4553 8.61536L14.617 9.40323ZM17.0899 12.5299L12.1628 14.4056L12.8744 16.2747L17.8014 14.3991L17.0899 12.5299Z" fill="white" mask="url(#path-2-inside-1_621_7988)"/>
</g>
</g>
<defs>
<clipPath id="clip0_621_7988">
<rect width="24" height="24" fill="white"/>
</clipPath>
<clipPath id="clip1_621_7988">
<rect width="12.5263" height="12.5263" fill="white" transform="translate(5.89478 8)"/>
</clipPath>
</defs>
</svg>
